<svg xmlns="http://www.w3.org/2000/svg" width="1200" height="560" viewBox="0 0 1200 560" role="img" aria-labelledby="title desc">
  <title id="title">Collatz evidence history</title>
  <desc id="desc">Public-safe trend graph generated from sanitized evidence history and canonical evidence JSON.</desc>
  <rect width="1200" height="560" fill="#070b16"/>
  <text x="64" y="62" fill="#f8fafc" font-family="Inter, ui-sans-serif, system-ui, sans-serif" font-size="31" font-weight="800">Collatz Evidence History</text>
  <text x="64" y="92" fill="#aab6d3" font-family="Inter, ui-sans-serif, system-ui, sans-serif" font-size="15">Every recorded runner iteration; public-safe evidence only.</text>

  <g>
    <rect x="64" y="116" width="232" height="76" rx="8" fill="#121a33" stroke="#2a3a68"/>
    <text x="82" y="145" fill="#94a3b8" font-family="Inter, ui-sans-serif, system-ui, sans-serif" font-size="12" letter-spacing="2">CURRENT AUDIT</text>
    <text x="82" y="174" fill="#f8fafc" font-family="Inter, ui-sans-serif, system-ui, sans-serif" font-size="26" font-weight="800">670M</text>
  </g>
  <g>
    <rect x="312" y="116" width="232" height="76" rx="8" fill="#121a33" stroke="#2a3a68"/>
    <text x="330" y="145" fill="#94a3b8" font-family="Inter, ui-sans-serif, system-ui, sans-serif" font-size="12" letter-spacing="2">ITERATIONS</text>
    <text x="330" y="174" fill="#f8fafc" font-family="Inter, ui-sans-serif, system-ui, sans-serif" font-size="26" font-weight="800">53</text>
  </g>
  <g>
    <rect x="560" y="116" width="232" height="76" rx="8" fill="#121a33" stroke="#2a3a68"/>
    <text x="578" y="145" fill="#94a3b8" font-family="Inter, ui-sans-serif, system-ui, sans-serif" font-size="12" letter-spacing="2">EVIDENCE SCORE</text>
    <text x="578" y="174" fill="#f8fafc" font-family="Inter, ui-sans-serif, system-ui, sans-serif" font-size="26" font-weight="800">73.86</text>
  </g>
  <g>
    <rect x="808" y="116" width="328" height="76" rx="8" fill="#121a33" stroke="#2a3a68"/>
    <text x="826" y="145" fill="#94a3b8" font-family="Inter, ui-sans-serif, system-ui, sans-serif" font-size="12" letter-spacing="2">CONFIDENCE</text>
    <text x="826" y="174" fill="#f8fafc" font-family="Inter, ui-sans-serif, system-ui, sans-serif" font-size="23" font-weight="800">source-neighborhood-supported</text>
  </g>

  <g>
    <rect x="64" y="210" width="1072" height="250" rx="8" fill="#0b1020" stroke="#2a3a68"/>
    <line x1="82" y1="168" x2="82" y2="430" stroke="#253453"/>
    <line x1="82" y1="430" x2="1136" y2="430" stroke="#253453"/>
    <text x="84" y="238" fill="#cbd5e1" font-family="Inter, ui-sans-serif, system-ui, sans-serif" font-size="14" font-weight="700">Cycle 1 to 53</text>
    <text x="84" y="258" fill="#7384ad" font-family="Inter, ui-sans-serif, system-ui, sans-serif" font-size="12">Latest: 2026-05-21 02:15 UTC; source 5,086/5,191; best ablation metrics-only 12.564%.</text>

    <polyline points="82.0,175.0 102.3,264.5 122.5,267.6 142.8,269.3 163.1,215.2 183.3,264.1 203.6,265.8 223.9,263.6 244.2,265.8 264.4,264.5 284.7,263.2 305.0,264.9 325.2,262.8 345.5,264.5 365.8,263.2 386.0,263.6 406.3,262.3 426.6,263.2 446.8,263.6 467.1,264.9 487.4,263.6 507.7,264.1 527.9,261.0 548.2,259.7 568.5,260.1 588.7,262.3 609.0,262.8 629.3,262.8 649.5,261.9 669.8,261.0 690.1,263.2 710.3,262.3 730.6,262.8 750.9,261.9 771.2,262.8 791.4,262.8 811.7,261.9 832.0,262.3 852.2,262.8 872.5,263.6 892.8,261.4 913.0,262.8 933.3,261.9 953.6,262.8 973.8,264.1 994.1,261.9 1014.4,261.9 1034.7,262.8 1054.9,261.4 1075.2,263.2 1095.5,262.8 1115.7,261.4 1136.0,261.4" fill="none" stroke="#67e8f9" stroke-width="3"/>
    <polyline points="82.0,216.7 102.3,216.7 122.5,216.7 142.8,216.7 163.1,216.7 183.3,216.7 203.6,216.7 223.9,216.7 244.2,216.7 264.4,216.7 284.7,216.7 305.0,216.7 325.2,216.7 345.5,250.3 365.8,250.3 386.0,250.3 406.3,250.3 426.6,250.3 446.8,250.3 467.1,250.3 487.4,250.3 507.7,250.3 527.9,250.3 548.2,250.3 568.5,250.3 588.7,250.3 609.0,250.3 629.3,250.3 649.5,250.3 669.8,250.3 690.1,250.3 710.3,250.3 730.6,250.3 750.9,250.3 771.2,250.3 791.4,250.3 811.7,250.3 832.0,250.3 852.2,250.3 872.5,250.3 892.8,250.3 913.0,250.3 933.3,250.3 953.6,250.3 973.8,250.3 994.1,250.3 1014.4,250.3 1034.7,250.3 1054.9,250.3 1075.2,250.3 1095.5,250.3 1115.7,250.3 1136.0,250.3" fill="none" stroke="#f472b6" stroke-width="2.5" opacity="0.9"/>
    <circle cx="1136.0" cy="261.4" r="5" fill="#67e8f9"/>
    <circle cx="1136.0" cy="250.3" r="5" fill="#f472b6"/>
    <text x="82" y="456" fill="#94a3b8" font-family="Inter, ui-sans-serif, system-ui, sans-serif" font-size="12">cycle 1</text>
    <text x="1064" y="456" fill="#94a3b8" font-family="Inter, ui-sans-serif, system-ui, sans-serif" font-size="12">cycle 53</text>
  </g>

  <g>
    <rect x="64" y="482" width="18" height="5" fill="#67e8f9"/>
    <text x="90" y="489" fill="#cbd5e1" font-family="Inter, ui-sans-serif, system-ui, sans-serif" font-size="13">Evidence score</text>
    <rect x="220" y="482" width="18" height="5" fill="#f472b6"/>
    <text x="246" y="489" fill="#cbd5e1" font-family="Inter, ui-sans-serif, system-ui, sans-serif" font-size="13">Source match rate</text>
    <rect x="398" y="478" width="18" height="13" fill="#334155" opacity="0.45"/>
    <text x="424" y="489" fill="#cbd5e1" font-family="Inter, ui-sans-serif, system-ui, sans-serif" font-size="13">Audit rows</text>
  </g>
  <text x="64" y="528" fill="#7384ad" font-family="Inter, ui-sans-serif, system-ui, sans-serif" font-size="12">Audit row history will populate on future cycles; headline shows the current canonical audit. Generated from sanitized runner history plus canonical evidence; operational telemetry does not raise confidence.</text>
</svg>
